<svg viewBox="-0.5 -0.5 24 24" fill="none" xmlns="http://www.w3.org/2000/svg" id="Peerlist--Streamline-Iconoir">
  <desc>
    Peerlist Streamline Icon: https://streamlinehq.com
  </desc>
  <path d="M8.025466666666667 1.5084166666666667h6.949066666666667c3.394129166666667 0 6.245458333333334 2.5521375 6.6202625 5.925470833333333l0.2339291666666667 2.1045000000000003c0.1449 1.3037166666666669 0.1449 2.6195083333333335 0 3.923225l-0.2339291666666667 2.1045000000000003c-0.37480416666666666 3.3734291666666665 -3.2261333333333333 5.925470833333333 -6.6202625 5.925470833333333H8.025466666666667c-3.394225 0 -6.245554166666667 -2.5520416666666668 -6.620358333333334 -5.925470833333333l-0.23383333333333334 -2.1045000000000003c-0.14480416666666668 -1.3037166666666669 -0.14480416666666668 -2.6195083333333335 0 -3.923225l0.23383333333333334 -2.1045000000000003c0.37480416666666666 -3.3733333333333335 3.2261333333333333 -5.925470833333333 6.620358333333334 -5.925470833333333Z" stroke="#000000" stroke-linecap="round" stroke-linejoin="round" stroke-width="1"></path>
  <path d="M8.169504166666666 17.050858333333334v-4.4407250000000005m0 0V5.949141666666667h4.440629166666667c1.839425 0 3.330591666666667 1.4910708333333333 3.330591666666667 3.3304958333333334h0c0 1.839425 -1.4910708333333333 3.3304958333333334 -3.330591666666667 3.3304958333333334H8.169504166666666Z" stroke="#000000" stroke-linecap="round" stroke-linejoin="round" stroke-width="1"></path>
</svg>